<svg xmlns="http://www.w3.org/2000/svg" width="1046" height="1073" viewBox="0 0 1046 1073" fill="none">
<g filter="url(#filter0_f_1_59)" data-anim="true" data-hidden="false">
<path d="M460.276 194.896C455.86 180.923 563.944 141.735 701.238 172.731C765.038 166.467 980.48 365.952 933.858 394.381C899.995 401.609 946.618 353.906 694.858 225.734C573.642 188.15 456.841 225.252 460.276 194.896Z" fill="url(#paint0_linear_1_59)" data-anim="true" data-hidden="false"/>
<path d="M802.11 321.719C812.531 311.261 899.026 385.996 936.519 519.327C972.461 571.459 896.13 852.391 848.492 825.633C825.919 799.818 890.826 817.414 885.993 539.012C862.046 416.438 773.276 333.182 802.11 321.719Z" fill="url(#paint1_linear_1_59)" data-anim="true" data-hidden="false"/>
<path d="M866.083 651.431C880.628 654.613 861.539 766.176 765.907 867.741C739.732 925.211 456.35 1009.61 454.398 955.762C464.841 923.319 483.827 986.75 722.234 835.962C815.699 751.368 840.962 633.416 866.083 651.431Z" fill="url(#paint2_linear_1_59)" data-anim="true" data-hidden="false"/>
<path d="M614.442 878.61C619.355 892.423 512.735 935.306 374.419 909.053C310.883 917.509 88.4516 725.561 134.031 695.545C167.614 687.156 122.723 736.434 378.903 855.863C501.387 889.253 616.792 848.154 614.442 878.61Z" fill="url(#paint3_linear_1_59)" data-anim="true" data-hidden="false"/>
<path d="M233.694 739.236C222.85 749.271 139.507 671.159 107.541 536.448C73.7783 482.93 161.629 205.262 208.124 233.892C229.615 260.582 165.486 240.421 158.838 518.787C177.712 642.212 262.977 728.928 233.694 739.236Z" fill="url(#paint4_linear_1_59)" data-anim="true" data-hidden="false"/>
<path d="M186.237 403.526C171.867 399.653 196.459 289.134 297.01 192.255C326 136.104 613.228 65.3345 612.51 119.215C600.472 151.12 584.651 86.8581 339.056 226.083C241.512 306.113 210.436 422.719 186.237 403.526Z" fill="url(#paint5_linear_1_59)" data-anim="true" data-hidden="false"/>
</g>
<g filter="url(#filter1_f_1_59)" data-hidden="false">
<ellipse cx="529.22" cy="535.942" rx="295.281" ry="299.56" fill="url(#paint6_linear_1_59)" data-hidden="false"/>
</g>
<circle cx="528.628" cy="536.37" r="280.303" transform="rotate(-180 528.628 536.37)" fill="url(#paint7_linear_1_59)" data-hidden="false"/>
<ellipse cx="528.364" cy="359.629" rx="144.645" ry="89.0122" fill="url(#paint8_linear_1_59)" data-hidden="false"/>
<ellipse cx="375.327" cy="624.326" rx="144.645" ry="89.0122" transform="rotate(-119.759 375.327 624.326)" fill="url(#paint9_linear_1_59)" data-hidden="false"/>
<path d="M301.554 535.942C301.554 565.727 307.42 595.22 318.819 622.738C330.217 650.256 346.924 675.259 367.985 696.321C389.046 717.382 414.049 734.089 441.567 745.487C469.085 756.885 498.579 762.752 528.364 762.752L528.364 705.879C506.047 705.879 483.949 701.483 463.332 692.943C442.714 684.403 423.98 671.886 408.2 656.105C392.42 640.325 379.902 621.592 371.362 600.974C362.822 580.356 358.427 558.258 358.427 535.942H301.554Z" fill="url(#paint10_linear_1_59)" data-anim="true" data-hidden="false"/>
<path d="M755.174 535.942C755.174 506.157 749.307 476.663 737.909 449.145C726.51 421.628 709.804 396.624 688.742 375.563C667.681 354.502 642.678 337.795 615.16 326.397C587.642 314.999 558.149 309.132 528.364 309.132L528.364 366.005C550.68 366.005 572.778 370.4 593.396 378.94C614.013 387.481 632.747 399.998 648.527 415.778C664.307 431.558 676.825 450.292 685.365 470.91C693.905 491.527 698.301 513.625 698.301 535.942H755.174Z" fill="url(#paint11_linear_1_59)" data-anim="true" data-hidden="false"/>
<g filter="url(#filter2_f_1_59)" data-hidden="false">
<path d="M500.701 397.307C498.891 391.583 543.169 375.53 599.412 388.227C625.548 385.661 713.805 467.381 694.706 479.027C680.834 481.988 699.933 462.446 596.798 409.94C547.141 394.544 499.293 409.743 500.701 397.307Z" fill="url(#paint12_linear_1_59)" data-hidden="false"/>
<path d="M640.734 449.261C645.004 444.977 680.437 475.593 695.796 530.212C710.52 551.568 679.25 666.653 659.735 655.692C650.488 645.117 677.077 652.325 675.097 538.276C665.288 488.063 628.922 453.957 640.734 449.261Z" fill="url(#paint13_linear_1_59)" data-hidden="false"/>
<path d="M666.941 584.329C672.9 585.633 665.08 631.335 625.904 672.942C615.181 696.484 499.092 731.06 498.293 709C502.571 695.71 510.348 721.694 608.013 659.923C646.301 625.269 656.65 576.949 666.941 584.329Z" fill="url(#paint14_linear_1_59)" data-hidden="false"/>
<path d="M563.855 677.394C565.868 683.053 522.191 700.62 465.529 689.865C439.501 693.329 348.381 614.697 367.052 602.401C380.81 598.964 362.42 619.151 467.366 668.076C517.542 681.754 564.818 664.918 563.855 677.394Z" fill="url(#paint15_linear_1_59)" data-hidden="false"/>
<path d="M407.88 620.299C403.438 624.41 369.296 592.411 356.201 537.226C342.37 515.302 378.358 401.554 397.405 413.282C406.209 424.216 379.938 415.957 377.215 529.991C384.947 580.553 419.876 616.076 407.88 620.299Z" fill="url(#paint16_linear_1_59)" data-hidden="false"/>
<path d="M388.439 482.774C382.552 481.187 392.627 435.912 433.818 396.225C445.694 373.223 563.358 344.232 563.064 366.304C558.133 379.374 551.651 353.049 451.042 410.083C411.083 442.868 398.352 490.636 388.439 482.774Z" fill="url(#paint17_linear_1_59)" data-hidden="false"/>
</g>
<g filter="url(#filter3_ii_1_59)" data-hidden="false">
<circle cx="528.537" cy="536.972" r="142.251" transform="rotate(-180 528.537 536.972)" fill="url(#paint18_linear_1_59)" data-hidden="false"/>
</g>
<path d="M542.914 617.251H525.095V490.516H484.713V472.606H542.914V617.251Z" fill="black" data-hidden="false"/>
<defs>
<filter id="filter0_f_1_59" x="0" y="0" width="1045.84" height="1073" filterUnits="userSpaceOnUse" color-interpolation-filters="sRGB">
<feFlood flood-opacity="0" result="BackgroundImageFix"/>
<feBlend mode="normal" in="SourceGraphic" in2="BackgroundImageFix" result="shape"/>
<feGaussianBlur stdDeviation="8.25" result="effect1_foregroundBlur_1_59"/>
</filter>
<filter id="filter1_f_1_59" x="54.6387" y="57.0815" width="949.162" height="957.721" filterUnits="userSpaceOnUse" color-interpolation-filters="sRGB">
<feFlood flood-opacity="0" result="BackgroundImageFix"/>
<feBlend mode="normal" in="SourceGraphic" in2="BackgroundImageFix" result="shape"/>
<feGaussianBlur stdDeviation="89.65" result="effect1_foregroundBlur_1_59"/>
</filter>
<filter id="filter2_f_1_59" x="303.112" y="308.433" width="446.501" height="457.627" filterUnits="userSpaceOnUse" color-interpolation-filters="sRGB">
<feFlood flood-opacity="0" result="BackgroundImageFix"/>
<feBlend mode="normal" in="SourceGraphic" in2="BackgroundImageFix" result="shape"/>
<feGaussianBlur stdDeviation="25" result="effect1_foregroundBlur_1_59"/>
</filter>
<filter id="filter3_ii_1_59" x="386.286" y="371.721" width="284.502" height="311.502" filterUnits="userSpaceOnUse" color-interpolation-filters="sRGB">
<feFlood flood-opacity="0" result="BackgroundImageFix"/>
<feBlend mode="normal" in="SourceGraphic" in2="BackgroundImageFix" result="shape"/>
<feColorMatrix in="SourceAlpha" type="matrix" values="0 0 0 0 0 0 0 0 0 0 0 0 0 0 0 0 0 0 127 0" result="hardAlpha"/>
<feOffset dy="4"/>
<feGaussianBlur stdDeviation="29.1"/>
<feComposite in2="hardAlpha" operator="arithmetic" k2="-1" k3="1"/>
<feColorMatrix type="matrix" values="0 0 0 0 1 0 0 0 0 0.989792 0 0 0 0 0.3875 0 0 0 1 0"/>
<feBlend mode="normal" in2="shape" result="effect1_innerShadow_1_59"/>
<feColorMatrix in="SourceAlpha" type="matrix" values="0 0 0 0 0 0 0 0 0 0 0 0 0 0 0 0 0 0 127 0" result="hardAlpha"/>
<feOffset dy="-23"/>
<feGaussianBlur stdDeviation="23.35"/>
<feComposite in2="hardAlpha" operator="arithmetic" k2="-1" k3="1"/>
<feColorMatrix type="matrix" values="0 0 0 0 0.364026 0 0 0 0 0.3875 0 0 0 0 0.186298 0 0 0 1 0"/>
<feBlend mode="normal" in2="effect1_innerShadow_1_59" result="effect2_innerShadow_1_59"/>
</filter>
<linearGradient id="paint0_linear_1_59" x1="450.226" y1="221.436" x2="580.243" y2="18.7428" gradientUnits="userSpaceOnUse">
<stop offset="0.145337" stop-color="#D5FF00"/>
<stop offset="0.765416" stop-color="#FFFB00"/>
</linearGradient>
<linearGradient id="paint1_linear_1_59" x1="773.551" y1="325.654" x2="1016.58" y2="346.321" gradientUnits="userSpaceOnUse">
<stop offset="0.145337" stop-color="#D5FF00"/>
<stop offset="0.765416" stop-color="#FFFB00"/>
</linearGradient>
<linearGradient id="paint2_linear_1_59" x1="847.623" y1="629.677" x2="955.328" y2="844.605" gradientUnits="userSpaceOnUse">
<stop offset="0.145337" stop-color="#D5FF00"/>
<stop offset="0.765416" stop-color="#FFFB00"/>
</linearGradient>
<linearGradient id="paint3_linear_1_59" x1="623.539" y1="851.74" x2="500.718" y2="1058.71" gradientUnits="userSpaceOnUse">
<stop offset="0.145337" stop-color="#D5FF00"/>
<stop offset="0.765416" stop-color="#FFFB00"/>
</linearGradient>
<linearGradient id="paint4_linear_1_59" x1="262.392" y1="736.439" x2="20.4575" y2="705.779" gradientUnits="userSpaceOnUse">
<stop offset="0.145337" stop-color="#D5FF00"/>
<stop offset="0.765416" stop-color="#FFFB00"/>
</linearGradient>
<linearGradient id="paint5_linear_1_59" x1="203.597" y1="426.136" x2="106.417" y2="206.429" gradientUnits="userSpaceOnUse">
<stop offset="0.145337" stop-color="#D5FF00"/>
<stop offset="0.765416" stop-color="#FFFB00"/>
</linearGradient>
<linearGradient id="paint6_linear_1_59" x1="824.5" y1="243.249" x2="233.939" y2="828.635" gradientUnits="userSpaceOnUse">
<stop stop-color="#CEDF14"/>
<stop offset="0.5" stop-color="#DEE81A"/>
<stop offset="1" stop-color="#C3C616"/>
</linearGradient>
<linearGradient id="paint7_linear_1_59" x1="528.628" y1="816.673" x2="528.628" y2="256.067" gradientUnits="userSpaceOnUse">
<stop stop-color="#CEDF14"/>
<stop offset="0.5" stop-color="#DEE81A"/>
<stop offset="1" stop-color="#C6C316"/>
</linearGradient>
<linearGradient id="paint8_linear_1_59" x1="528.364" y1="270.617" x2="528.364" y2="448.641" gradientUnits="userSpaceOnUse">
<stop stop-color="white"/>
<stop offset="1" stop-color="white" stop-opacity="0"/>
</linearGradient>
<linearGradient id="paint9_linear_1_59" x1="519.972" y1="651.816" x2="258.433" y2="713.845" gradientUnits="userSpaceOnUse">
<stop stop-color="white" stop-opacity="0.23"/>
<stop offset="1" stop-color="white" stop-opacity="0"/>
</linearGradient>
<linearGradient id="paint10_linear_1_59" x1="528.364" y1="309.132" x2="528.364" y2="762.752" gradientUnits="userSpaceOnUse">
<stop offset="0.418269" stop-color="#C6C6C6" stop-opacity="0"/>
<stop offset="0.9998" stop-color="white"/>
</linearGradient>
<linearGradient id="paint11_linear_1_59" x1="528.364" y1="762.752" x2="528.364" y2="309.132" gradientUnits="userSpaceOnUse">
<stop offset="0.418269" stop-color="#C6C6C6" stop-opacity="0"/>
<stop offset="0.9998" stop-color="white"/>
</linearGradient>
<linearGradient id="paint12_linear_1_59" x1="496.583" y1="408.179" x2="549.846" y2="325.145" gradientUnits="userSpaceOnUse">
<stop offset="0.145337" stop-color="#FFAE00"/>
<stop offset="0.765416" stop-color="#9E711F"/>
</linearGradient>
<linearGradient id="paint13_linear_1_59" x1="629.035" y1="450.873" x2="728.594" y2="459.339" gradientUnits="userSpaceOnUse">
<stop offset="0.145337" stop-color="#FFAE00"/>
<stop offset="0.765416" stop-color="#9E711F"/>
</linearGradient>
<linearGradient id="paint14_linear_1_59" x1="659.379" y1="575.417" x2="703.501" y2="663.464" gradientUnits="userSpaceOnUse">
<stop offset="0.145337" stop-color="#FFAE00"/>
<stop offset="0.765416" stop-color="#9E711F"/>
</linearGradient>
<linearGradient id="paint15_linear_1_59" x1="567.582" y1="666.387" x2="517.268" y2="751.174" gradientUnits="userSpaceOnUse">
<stop offset="0.145337" stop-color="#FFAE00"/>
<stop offset="0.765416" stop-color="#9E711F"/>
</linearGradient>
<linearGradient id="paint16_linear_1_59" x1="419.636" y1="619.153" x2="320.527" y2="606.593" gradientUnits="userSpaceOnUse">
<stop offset="0.145337" stop-color="#FFAE00"/>
<stop offset="0.765416" stop-color="#9E711F"/>
</linearGradient>
<linearGradient id="paint17_linear_1_59" x1="395.551" y1="492.036" x2="355.74" y2="402.032" gradientUnits="userSpaceOnUse">
<stop offset="0.145337" stop-color="#FFAE00"/>
<stop offset="0.765416" stop-color="#9E711F"/>
</linearGradient>
<linearGradient id="paint18_linear_1_59" x1="528.537" y1="679.223" x2="528.537" y2="394.721" gradientUnits="userSpaceOnUse">
<stop stop-color="white"/>
<stop offset="0.9999" stop-color="#C6C6C6"/>
</linearGradient>
</defs>
</svg>