<svg xmlns="http://www.w3.org/2000/svg" width="1046" height="1073" viewBox="0 0 1046 1073" fill="none">
<g filter="url(#filter0_f_1_96)" data-anim="true">
<path d="M460.276 194.896C455.86 180.923 563.944 141.735 701.238 172.731C765.038 166.467 980.48 365.952 933.858 394.381C899.995 401.609 946.618 353.906 694.858 225.734C573.642 188.15 456.841 225.252 460.276 194.896Z" fill="url(#paint0_linear_1_96)" data-anim="true"/>
<path d="M802.11 321.719C812.531 311.261 899.026 385.997 936.519 519.327C972.461 571.459 896.13 852.391 848.492 825.633C825.919 799.818 890.826 817.414 885.993 539.012C862.046 416.438 773.276 333.183 802.11 321.719Z" fill="url(#paint1_linear_1_96)" data-anim="true"/>
<path d="M866.083 651.431C880.628 654.613 861.539 766.176 765.907 867.741C739.732 925.211 456.35 1009.61 454.398 955.762C464.841 923.319 483.827 986.75 722.234 835.962C815.699 751.368 840.962 633.416 866.083 651.431Z" fill="url(#paint2_linear_1_96)" data-anim="true"/>
<path d="M614.442 878.61C619.355 892.423 512.735 935.306 374.419 909.053C310.883 917.509 88.4516 725.561 134.031 695.545C167.614 687.156 122.723 736.434 378.903 855.863C501.387 889.253 616.792 848.154 614.442 878.61Z" fill="url(#paint3_linear_1_96)" data-anim="true"/>
<path d="M233.694 739.236C222.85 749.271 139.507 671.159 107.541 536.448C73.7783 482.93 161.629 205.262 208.124 233.892C229.615 260.582 165.486 240.421 158.838 518.787C177.712 642.212 262.977 728.928 233.694 739.236Z" fill="url(#paint4_linear_1_96)" data-anim="true"/>
<path d="M186.237 403.526C171.867 399.653 196.459 289.134 297.01 192.255C326 136.104 613.228 65.3345 612.51 119.215C600.472 151.12 584.651 86.8581 339.056 226.083C241.512 306.113 210.436 422.719 186.237 403.526Z" fill="url(#paint5_linear_1_96)" data-anim="true"/>
</g>
<g filter="url(#filter1_f_1_96)">
<ellipse cx="529.01" cy="535.715" rx="300.516" ry="304.871" fill="url(#paint6_linear_1_96)"/>
</g>
<circle cx="528.408" cy="536.15" r="285.272" transform="rotate(-180 528.408 536.15)" fill="url(#paint7_linear_1_96)"/>
<ellipse cx="528.139" cy="356.276" rx="147.209" ry="90.5902" fill="url(#paint8_linear_1_96)"/>
<ellipse cx="372.39" cy="625.666" rx="147.209" ry="90.5902" transform="rotate(-119.759 372.39 625.666)" fill="url(#paint9_linear_1_96)"/>
<path d="M297.308 535.715C297.308 566.028 303.279 596.044 314.879 624.05C326.48 652.055 343.483 677.502 364.917 698.937C386.352 720.371 411.799 737.374 439.804 748.974C467.81 760.575 497.826 766.545 528.139 766.545L528.139 708.664C505.427 708.664 482.938 704.191 461.954 695.499C440.971 686.808 421.905 674.068 405.845 658.009C389.786 641.949 377.046 622.883 368.355 601.9C359.663 580.916 355.19 558.427 355.19 535.715H297.308Z" fill="url(#paint10_linear_1_96)" data-anim="true"/>
<path d="M758.97 535.715C758.97 505.402 753 475.385 741.399 447.38C729.799 419.374 712.796 393.927 691.361 372.493C669.927 351.058 644.48 334.055 616.474 322.455C588.469 310.854 558.452 304.884 528.139 304.884L528.139 362.765C550.851 362.765 573.341 367.238 594.324 375.93C615.308 384.621 634.373 397.361 650.433 413.421C666.493 429.481 679.232 448.546 687.924 469.53C696.616 490.513 701.089 513.003 701.089 535.715H758.97Z" fill="url(#paint11_linear_1_96)" data-anim="true"/>
<path d="M522.636 371.176C500.914 371.899 479.547 376.893 459.755 385.873C439.964 394.853 422.134 407.644 407.286 423.515C392.437 439.385 380.86 458.025 373.215 478.37C365.57 498.715 362.007 520.367 362.73 542.089L383.795 541.388C383.165 522.433 386.274 503.538 392.945 485.784C399.616 468.03 409.719 451.764 422.677 437.915C435.634 424.065 451.193 412.903 468.464 405.067C485.736 397.23 504.381 392.872 523.337 392.242L522.636 371.176Z" fill="url(#paint12_linear_1_96)" data-anim="true" data-hidden="false"/>
<path d="M537.872 701.801C559.568 700.523 580.8 694.984 600.356 685.5C619.912 676.016 637.408 662.774 651.846 646.528C666.284 630.283 677.381 611.353 684.503 590.819C691.625 570.285 694.632 548.549 693.354 526.853L672.313 528.093C673.429 547.026 670.804 565.993 664.589 583.912C658.374 601.831 648.691 618.35 636.091 632.527C623.492 646.703 608.224 658.259 591.159 666.535C574.094 674.811 555.566 679.644 536.632 680.76L537.872 701.801Z" fill="url(#paint13_linear_1_96)" data-anim="true" data-hidden="false"/>
<g filter="url(#filter2_f_1_96)">
<path d="M499.986 394.622C498.144 388.797 543.207 372.459 600.447 385.381C627.046 382.77 716.868 465.938 697.43 477.791C683.312 480.804 702.75 460.916 597.787 407.479C547.25 391.81 498.554 407.278 499.986 394.622Z" fill="url(#paint14_linear_1_96)"/>
<path d="M642.502 447.497C646.847 443.137 682.908 474.295 698.54 529.883C713.525 551.618 681.701 668.743 661.84 657.587C652.429 646.825 679.49 654.161 677.474 538.09C667.491 486.987 630.481 452.276 642.502 447.497Z" fill="url(#paint15_linear_1_96)"/>
<path d="M669.174 584.96C675.238 586.286 667.28 632.799 627.409 675.143C616.496 699.103 498.349 734.292 497.535 711.84C501.889 698.315 509.805 724.76 609.201 661.894C648.168 626.625 658.7 577.449 669.174 584.96Z" fill="url(#paint16_linear_1_96)"/>
<path d="M564.26 679.674C566.308 685.433 521.857 703.312 464.191 692.367C437.701 695.892 344.966 615.866 363.968 603.351C377.97 599.854 359.254 620.399 466.06 670.191C517.126 684.112 565.24 666.977 564.26 679.674Z" fill="url(#paint17_linear_1_96)"/>
<path d="M405.52 621.567C400.999 625.751 366.251 593.185 352.925 537.021C338.848 514.709 375.474 398.944 394.859 410.88C403.819 422.008 377.083 413.603 374.311 529.658C382.18 581.116 417.728 617.269 405.52 621.567Z" fill="url(#paint18_linear_1_96)"/>
<path d="M385.734 481.604C379.743 479.989 389.996 433.912 431.917 393.521C444.004 370.111 563.754 340.606 563.455 363.07C558.436 376.372 551.84 349.579 449.447 407.625C408.779 440.991 395.823 489.606 385.734 481.604Z" fill="url(#paint19_linear_1_96)"/>
</g>
<g filter="url(#filter3_ii_1_96)">
<circle cx="528.316" cy="536.763" r="144.773" transform="rotate(-180 528.316 536.763)" fill="url(#paint20_linear_1_96)"/>
</g>
<path d="M579.532 603.657H479.654V564.465C479.595 552.746 480.73 544.555 483.061 539.891C487.365 531.162 495.912 526.797 508.703 526.797H550.393C556.61 526.797 560.286 525.721 561.421 523.568C562.497 521.536 563.035 516.154 563.035 507.425V506.259C563.035 497.53 562.497 492.179 561.421 490.206C560.286 487.993 556.61 486.887 550.393 486.887H508.255C503.234 486.887 499.917 487.545 498.303 488.86C497.227 489.697 496.48 491.371 496.062 493.883L494.806 502.044L478.489 499.443L479.834 491.282C482.045 477.351 491.519 470.385 508.255 470.385H550.393C563.125 470.385 571.642 474.361 575.946 482.313C578.336 486.738 579.532 494.72 579.532 506.259V507.425C579.532 518.965 578.336 526.947 575.946 531.371C571.642 539.323 563.125 543.299 550.393 543.299H508.703C502.726 543.299 499.11 544.585 497.855 547.156C496.659 549.547 496.062 555.317 496.062 564.465V587.155H579.532V603.657Z" fill="black"/>
<defs>
<filter id="filter0_f_1_96" x="0" y="0" width="1045.84" height="1073" filterUnits="userSpaceOnUse" color-interpolation-filters="sRGB">
<feFlood flood-opacity="0" result="BackgroundImageFix"/>
<feBlend mode="normal" in="SourceGraphic" in2="BackgroundImageFix" result="shape"/>
<feGaussianBlur stdDeviation="3.15" result="effect1_foregroundBlur_1_96"/>
</filter>
<filter id="filter1_f_1_96" x="49.1948" y="51.5437" width="959.631" height="968.342" filterUnits="userSpaceOnUse" color-interpolation-filters="sRGB">
<feFlood flood-opacity="0" result="BackgroundImageFix"/>
<feBlend mode="normal" in="SourceGraphic" in2="BackgroundImageFix" result="shape"/>
<feGaussianBlur stdDeviation="89.65" result="effect1_foregroundBlur_1_96"/>
</filter>
<filter id="filter2_f_1_96" x="299.78" y="305.059" width="452.644" height="463.967" filterUnits="userSpaceOnUse" color-interpolation-filters="sRGB">
<feFlood flood-opacity="0" result="BackgroundImageFix"/>
<feBlend mode="normal" in="SourceGraphic" in2="BackgroundImageFix" result="shape"/>
<feGaussianBlur stdDeviation="25" result="effect1_foregroundBlur_1_96"/>
</filter>
<filter id="filter3_ii_1_96" x="383.543" y="368.99" width="289.546" height="316.546" filterUnits="userSpaceOnUse" color-interpolation-filters="sRGB">
<feFlood flood-opacity="0" result="BackgroundImageFix"/>
<feBlend mode="normal" in="SourceGraphic" in2="BackgroundImageFix" result="shape"/>
<feColorMatrix in="SourceAlpha" type="matrix" values="0 0 0 0 0 0 0 0 0 0 0 0 0 0 0 0 0 0 127 0" result="hardAlpha"/>
<feOffset dy="4"/>
<feGaussianBlur stdDeviation="29.1"/>
<feComposite in2="hardAlpha" operator="arithmetic" k2="-1" k3="1"/>
<feColorMatrix type="matrix" values="0 0 0 0 1 0 0 0 0 0.683333 0 0 0 0 0 0 0 0 1 0"/>
<feBlend mode="normal" in2="shape" result="effect1_innerShadow_1_96"/>
<feColorMatrix in="SourceAlpha" type="matrix" values="0 0 0 0 0 0 0 0 0 0 0 0 0 0 0 0 0 0 127 0" result="hardAlpha"/>
<feOffset dy="-23"/>
<feGaussianBlur stdDeviation="23.35"/>
<feComposite in2="hardAlpha" operator="arithmetic" k2="-1" k3="1"/>
<feColorMatrix type="matrix" values="0 0 0 0 0.364026 0 0 0 0 0.3875 0 0 0 0 0.186298 0 0 0 1 0"/>
<feBlend mode="normal" in2="effect1_innerShadow_1_96" result="effect2_innerShadow_1_96"/>
</filter>
<linearGradient id="paint0_linear_1_96" x1="450.226" y1="221.436" x2="580.243" y2="18.7428" gradientUnits="userSpaceOnUse">
<stop offset="0.145337" stop-color="#FFDD00"/>
<stop offset="0.765416" stop-color="#FF9D00"/>
</linearGradient>
<linearGradient id="paint1_linear_1_96" x1="773.551" y1="325.654" x2="1016.58" y2="346.321" gradientUnits="userSpaceOnUse">
<stop offset="0.145337" stop-color="#FFDD00"/>
<stop offset="0.765416" stop-color="#FF9D00"/>
</linearGradient>
<linearGradient id="paint2_linear_1_96" x1="847.623" y1="629.677" x2="955.328" y2="844.605" gradientUnits="userSpaceOnUse">
<stop offset="0.145337" stop-color="#FFDD00"/>
<stop offset="0.765416" stop-color="#FF9D00"/>
</linearGradient>
<linearGradient id="paint3_linear_1_96" x1="623.539" y1="851.74" x2="500.718" y2="1058.71" gradientUnits="userSpaceOnUse">
<stop offset="0.145337" stop-color="#FFDD00"/>
<stop offset="0.765416" stop-color="#FF9D00"/>
</linearGradient>
<linearGradient id="paint4_linear_1_96" x1="262.392" y1="736.439" x2="20.4575" y2="705.779" gradientUnits="userSpaceOnUse">
<stop offset="0.145337" stop-color="#FFDD00"/>
<stop offset="0.765416" stop-color="#FF9D00"/>
</linearGradient>
<linearGradient id="paint5_linear_1_96" x1="203.597" y1="426.136" x2="106.417" y2="206.429" gradientUnits="userSpaceOnUse">
<stop offset="0.145337" stop-color="#FFDD00"/>
<stop offset="0.765416" stop-color="#FF9D00"/>
</linearGradient>
<linearGradient id="paint6_linear_1_96" x1="829.526" y1="237.833" x2="228.495" y2="833.596" gradientUnits="userSpaceOnUse">
<stop stop-color="#DF8014"/>
<stop offset="0.5" stop-color="#E88F1A"/>
<stop offset="1" stop-color="#C69A16"/>
</linearGradient>
<linearGradient id="paint7_linear_1_96" x1="528.408" y1="821.422" x2="528.408" y2="250.878" gradientUnits="userSpaceOnUse">
<stop stop-color="#DF9114"/>
<stop offset="0.5" stop-color="#E8B51A"/>
<stop offset="1" stop-color="#C68E16"/>
</linearGradient>
<linearGradient id="paint8_linear_1_96" x1="528.139" y1="265.686" x2="528.139" y2="446.867" gradientUnits="userSpaceOnUse">
<stop stop-color="white"/>
<stop offset="1" stop-color="white" stop-opacity="0"/>
</linearGradient>
<linearGradient id="paint9_linear_1_96" x1="519.599" y1="653.643" x2="253.424" y2="716.771" gradientUnits="userSpaceOnUse">
<stop stop-color="white" stop-opacity="0.23"/>
<stop offset="1" stop-color="white" stop-opacity="0"/>
</linearGradient>
<linearGradient id="paint10_linear_1_96" x1="528.139" y1="304.884" x2="528.139" y2="766.545" gradientUnits="userSpaceOnUse">
<stop offset="0.418269" stop-color="#C6C6C6" stop-opacity="0"/>
<stop offset="0.9998" stop-color="white"/>
</linearGradient>
<linearGradient id="paint11_linear_1_96" x1="528.139" y1="766.545" x2="528.139" y2="304.884" gradientUnits="userSpaceOnUse">
<stop offset="0.418269" stop-color="#C6C6C6" stop-opacity="0"/>
<stop offset="0.9998" stop-color="white"/>
</linearGradient>
<linearGradient id="paint12_linear_1_96" x1="528.139" y1="702.087" x2="528.139" y2="371.084" gradientUnits="userSpaceOnUse">
<stop offset="0.418269" stop-color="#C6C6C6"/>
<stop offset="0.9998" stop-color="white"/>
</linearGradient>
<linearGradient id="paint13_linear_1_96" x1="528.139" y1="702.087" x2="528.139" y2="371.084" gradientUnits="userSpaceOnUse">
<stop offset="0.418269" stop-color="#C6C6C6"/>
<stop offset="0.9998" stop-color="white"/>
</linearGradient>
<linearGradient id="paint14_linear_1_96" x1="495.796" y1="405.687" x2="550.002" y2="321.181" gradientUnits="userSpaceOnUse">
<stop offset="0.145337" stop-color="#FFAE00"/>
<stop offset="0.765416" stop-color="#9E711F"/>
</linearGradient>
<linearGradient id="paint15_linear_1_96" x1="630.596" y1="449.138" x2="731.919" y2="457.754" gradientUnits="userSpaceOnUse">
<stop offset="0.145337" stop-color="#FFAE00"/>
<stop offset="0.765416" stop-color="#9E711F"/>
</linearGradient>
<linearGradient id="paint16_linear_1_96" x1="661.477" y1="575.89" x2="706.382" y2="665.497" gradientUnits="userSpaceOnUse">
<stop offset="0.145337" stop-color="#FFAE00"/>
<stop offset="0.765416" stop-color="#9E711F"/>
</linearGradient>
<linearGradient id="paint17_linear_1_96" x1="568.053" y1="668.472" x2="516.847" y2="754.762" gradientUnits="userSpaceOnUse">
<stop offset="0.145337" stop-color="#FFAE00"/>
<stop offset="0.765416" stop-color="#9E711F"/>
</linearGradient>
<linearGradient id="paint18_linear_1_96" x1="417.484" y1="620.401" x2="316.618" y2="607.618" gradientUnits="userSpaceOnUse">
<stop offset="0.145337" stop-color="#FFAE00"/>
<stop offset="0.765416" stop-color="#9E711F"/>
</linearGradient>
<linearGradient id="paint19_linear_1_96" x1="392.972" y1="491.03" x2="352.456" y2="399.431" gradientUnits="userSpaceOnUse">
<stop offset="0.145337" stop-color="#FFAE00"/>
<stop offset="0.765416" stop-color="#9E711F"/>
</linearGradient>
<linearGradient id="paint20_linear_1_96" x1="528.316" y1="681.535" x2="528.316" y2="391.99" gradientUnits="userSpaceOnUse">
<stop stop-color="white"/>
<stop offset="0.9999" stop-color="#C6C6C6"/>
</linearGradient>
</defs>
</svg>