<svg xmlns="http://www.w3.org/2000/svg" width="1046" height="1073" viewBox="0 0 1046 1073" fill="none">
<path d="M975.761 790.617C1020.1 712.705 1043.33 624.57 1043.16 534.926C1042.99 445.282 1019.42 357.236 974.791 279.493C930.159 201.75 866.007 137.003 788.679 91.6559C711.351 46.3087 623.525 21.9315 533.887 20.9349L533.313 72.5085C613.974 73.4053 693.004 95.3411 762.588 136.147C832.172 176.953 889.899 235.215 930.062 305.172C970.224 375.129 991.431 454.358 991.584 535.024C991.737 615.69 970.831 694.999 930.934 765.108L975.761 790.617Z" fill="url(#paint0_linear_1_135)" data-anim="true"/>
<path d="M54.429 333.906C19.2682 416.366 6.24064 506.577 16.6346 595.616C27.0286 684.655 60.484 769.439 113.693 841.584C166.901 913.729 238.02 970.735 320.016 1006.97C402.012 1043.2 492.045 1057.4 581.212 1048.16L575.899 996.861C495.662 1005.17 414.646 992.392 340.861 959.79C267.077 927.187 203.081 875.89 155.201 810.97C107.321 746.051 77.2165 669.758 67.8635 589.636C58.5104 509.514 70.2333 428.338 101.873 354.136L54.429 333.906Z" fill="url(#paint1_linear_1_135)" data-anim="true"/>
<g filter="url(#filter0_f_1_135)" data-anim="true">
<path d="M460.276 194.896C455.86 180.923 563.944 141.735 701.238 172.731C765.038 166.467 980.48 365.952 933.858 394.381C899.995 401.609 946.618 353.906 694.858 225.734C573.642 188.15 456.841 225.252 460.276 194.896Z" fill="url(#paint2_linear_1_135)" data-anim="true"/>
<path d="M802.11 321.719C812.531 311.261 899.026 385.997 936.519 519.327C972.461 571.459 896.13 852.391 848.492 825.633C825.919 799.818 890.826 817.414 885.993 539.012C862.046 416.438 773.276 333.183 802.11 321.719Z" fill="url(#paint3_linear_1_135)" data-anim="true"/>
<path d="M866.083 651.431C880.628 654.613 861.539 766.176 765.907 867.741C739.732 925.211 456.35 1009.61 454.398 955.762C464.841 923.319 483.827 986.75 722.234 835.962C815.699 751.368 840.962 633.416 866.083 651.431Z" fill="url(#paint4_linear_1_135)" data-anim="true"/>
<path d="M614.442 878.61C619.355 892.423 512.735 935.306 374.419 909.053C310.883 917.509 88.4516 725.561 134.031 695.545C167.614 687.156 122.723 736.434 378.903 855.863C501.387 889.253 616.792 848.154 614.442 878.61Z" fill="url(#paint5_linear_1_135)" data-anim="true"/>
<path d="M233.694 739.236C222.85 749.271 139.507 671.159 107.541 536.448C73.7783 482.93 161.629 205.262 208.124 233.892C229.615 260.582 165.486 240.421 158.838 518.787C177.712 642.212 262.977 728.928 233.694 739.236Z" fill="url(#paint6_linear_1_135)" data-anim="true"/>
<path d="M186.237 403.526C171.867 399.653 196.459 289.134 297.01 192.255C326 136.104 613.228 65.3345 612.51 119.215C600.472 151.12 584.651 86.8581 339.056 226.083C241.512 306.113 210.436 422.719 186.237 403.526Z" fill="url(#paint7_linear_1_135)" data-anim="true"/>
</g>
<g filter="url(#filter1_f_1_135)">
<ellipse cx="528.757" cy="535.472" rx="297.237" ry="301.544" fill="url(#paint8_linear_1_135)"/>
</g>
<circle cx="528.161" cy="535.903" r="282.159" transform="rotate(-180 528.161 535.903)" fill="url(#paint9_linear_1_135)"/>
<ellipse cx="527.895" cy="357.992" rx="145.603" ry="89.6018" fill="url(#paint10_linear_1_135)"/>
<ellipse cx="373.845" cy="624.442" rx="145.603" ry="89.6018" transform="rotate(-119.759 373.845 624.442)" fill="url(#paint11_linear_1_135)"/>
<path d="M299.583 535.472C299.583 565.455 305.488 595.144 316.962 622.844C328.436 650.544 345.253 675.713 366.454 696.914C387.655 718.114 412.824 734.932 440.524 746.405C468.224 757.879 497.913 763.785 527.895 763.785L527.895 706.535C505.431 706.535 483.187 702.11 462.432 693.514C441.678 684.917 422.82 672.317 406.936 656.432C391.051 640.547 378.451 621.69 369.854 600.935C361.257 580.181 356.833 557.937 356.833 535.472H299.583Z" fill="url(#paint12_linear_1_135)" data-anim="true"/>
<path d="M756.207 535.472C756.207 505.49 750.302 475.801 738.828 448.101C727.354 420.401 710.537 395.232 689.336 374.031C668.136 352.83 642.967 336.013 615.267 324.539C587.566 313.066 557.878 307.16 527.895 307.16L527.895 364.41C550.359 364.41 572.604 368.834 593.358 377.431C614.112 386.028 632.97 398.628 648.855 414.513C664.739 430.397 677.34 449.255 685.937 470.009C694.533 490.764 698.958 513.008 698.958 535.472H756.207Z" fill="url(#paint13_linear_1_135)" data-anim="true"/>
<path d="M522.452 372.729C500.967 373.444 479.833 378.383 460.257 387.266C440.682 396.148 423.047 408.799 408.36 424.497C393.673 440.194 382.222 458.631 374.661 478.754C367.099 498.877 363.575 520.292 364.29 541.777L385.126 541.084C384.502 522.335 387.577 503.647 394.176 486.087C400.774 468.527 410.767 452.438 423.583 438.74C436.4 425.041 451.789 414.001 468.871 406.25C485.954 398.499 504.397 394.188 523.145 393.565L522.452 372.729Z" fill="url(#paint14_linear_1_135)" data-anim="true"/>
<path d="M537.522 699.746C558.981 698.482 579.982 693.003 599.324 683.623C618.666 674.243 635.972 661.145 650.252 645.077C664.532 629.009 675.508 610.285 682.552 589.975C689.597 569.666 692.572 548.167 691.308 526.707L670.496 527.933C671.599 546.66 669.003 565.421 662.856 583.144C656.709 600.867 647.131 617.206 634.669 631.228C622.208 645.25 607.106 656.68 590.227 664.865C573.348 673.051 555.022 677.832 536.296 678.935L537.522 699.746Z" fill="url(#paint15_linear_1_135)" data-anim="true"/>
<g filter="url(#filter2_f_1_135)">
<path d="M500.049 395.92C498.228 390.157 542.798 373.998 599.414 386.779C625.723 384.196 714.565 466.458 695.339 478.181C681.375 481.161 700.601 461.49 596.783 408.636C546.797 393.138 498.632 408.438 500.049 395.92Z" fill="url(#paint16_linear_1_135)" data-hidden="false"/>
<path d="M641.01 448.217C645.308 443.905 680.976 474.723 696.436 529.705C711.258 551.202 679.781 667.05 660.137 656.015C650.828 645.37 677.594 652.626 675.601 537.822C665.726 487.276 629.12 452.944 641.01 448.217Z" fill="url(#paint17_linear_1_135)" data-hidden="false"/>
<path d="M667.391 584.18C673.389 585.492 665.517 631.497 626.081 673.38C615.288 697.078 498.43 731.883 497.625 709.676C501.931 696.298 509.761 722.455 608.072 660.275C646.614 625.391 657.032 576.751 667.391 584.18Z" fill="url(#paint18_linear_1_135)" data-hidden="false"/>
<path d="M563.622 677.861C565.648 683.558 521.681 701.241 464.644 690.415C438.444 693.902 346.72 614.749 365.515 602.371C379.364 598.912 360.853 619.233 466.493 668.481C517.002 682.25 564.591 665.302 563.622 677.861Z" fill="url(#paint19_linear_1_135)" data-hidden="false"/>
<path d="M406.614 620.388C402.142 624.526 367.774 592.315 354.592 536.765C340.669 514.696 376.896 400.194 396.069 412C404.931 423.006 378.487 414.693 375.745 529.482C383.528 580.379 418.689 616.137 406.614 620.388Z" fill="url(#paint20_linear_1_135)"/>
<path d="M387.044 481.952C381.118 480.355 391.259 434.78 432.723 394.831C444.678 371.676 563.121 342.492 562.825 364.711C557.861 377.868 551.337 351.368 450.062 408.78C409.837 441.782 397.023 489.867 387.044 481.952Z" fill="url(#paint21_linear_1_135)"/>
</g>
<g filter="url(#filter3_ii_1_135)">
<circle cx="528.07" cy="536.509" r="143.193" transform="rotate(-180 528.07 536.509)" fill="url(#paint22_linear_1_135)"/>
</g>
<path d="M509.058 596.643C493.776 596.643 485.121 590.249 483.094 577.46L498.048 575.073C498.377 577.378 499.034 578.915 500.02 579.683C501.554 580.89 504.567 581.494 509.058 581.494H545.622C551.866 581.494 555.618 580.342 556.878 578.036C557.974 576.006 558.522 570.654 558.522 561.982V560.665C558.522 552.048 557.974 546.724 556.878 544.693C555.618 542.388 551.866 541.235 545.622 541.235C545.512 541.235 545.348 541.235 545.129 541.235H505.525V526.087H545.129C550.771 526.087 554.112 525.099 555.153 523.123C556.139 521.312 556.632 516.427 556.632 508.468V507.069C556.632 499.11 556.139 494.225 555.153 492.414C554.112 490.438 550.771 489.45 545.129 489.45H509.058C504.567 489.45 501.554 490.054 500.02 491.262C499.034 492.03 498.377 493.567 498.048 495.872L483.094 493.485C485.121 480.696 493.776 474.302 509.058 474.302H545.129C556.741 474.302 564.52 477.924 568.463 485.169C570.655 489.231 571.75 496.531 571.75 507.069V508.468C571.75 515.988 571.586 520.708 571.257 522.629C570.326 528.612 567.888 532.042 563.944 532.92C568.655 534.402 571.613 538.299 572.818 544.611C573.311 547.19 573.558 552.542 573.558 560.665V561.982C573.558 573.179 572.407 580.918 570.107 585.199C565.999 592.828 557.837 596.643 545.622 596.643H509.058Z" fill="black"/>
<defs>
<filter id="filter0_f_1_135" x="0" y="0" width="1045.84" height="1073" filterUnits="userSpaceOnUse" color-interpolation-filters="sRGB">
<feFlood flood-opacity="0" result="BackgroundImageFix"/>
<feBlend mode="normal" in="SourceGraphic" in2="BackgroundImageFix" result="shape"/>
<feGaussianBlur stdDeviation="11.2" result="effect1_foregroundBlur_1_135"/>
</filter>
<filter id="filter1_f_1_135" x="52.2201" y="54.6279" width="953.073" height="961.689" filterUnits="userSpaceOnUse" color-interpolation-filters="sRGB">
<feFlood flood-opacity="0" result="BackgroundImageFix"/>
<feBlend mode="normal" in="SourceGraphic" in2="BackgroundImageFix" result="shape"/>
<feGaussianBlur stdDeviation="89.65" result="effect1_foregroundBlur_1_135"/>
</filter>
<filter id="filter2_f_1_135" x="301.482" y="306.787" width="448.797" height="459.996" filterUnits="userSpaceOnUse" color-interpolation-filters="sRGB">
<feFlood flood-opacity="0" result="BackgroundImageFix"/>
<feBlend mode="normal" in="SourceGraphic" in2="BackgroundImageFix" result="shape"/>
<feGaussianBlur stdDeviation="25" result="effect1_foregroundBlur_1_135"/>
</filter>
<filter id="filter3_ii_1_135" x="384.877" y="370.316" width="286.386" height="313.386" filterUnits="userSpaceOnUse" color-interpolation-filters="sRGB">
<feFlood flood-opacity="0" result="BackgroundImageFix"/>
<feBlend mode="normal" in="SourceGraphic" in2="BackgroundImageFix" result="shape"/>
<feColorMatrix in="SourceAlpha" type="matrix" values="0 0 0 0 0 0 0 0 0 0 0 0 0 0 0 0 0 0 127 0" result="hardAlpha"/>
<feOffset dy="4"/>
<feGaussianBlur stdDeviation="29.1"/>
<feComposite in2="hardAlpha" operator="arithmetic" k2="-1" k3="1"/>
<feColorMatrix type="matrix" values="0 0 0 0 1 0 0 0 0 0.683333 0 0 0 0 0 0 0 0 1 0"/>
<feBlend mode="normal" in2="shape" result="effect1_innerShadow_1_135"/>
<feColorMatrix in="SourceAlpha" type="matrix" values="0 0 0 0 0 0 0 0 0 0 0 0 0 0 0 0 0 0 127 0" result="hardAlpha"/>
<feOffset dy="-23"/>
<feGaussianBlur stdDeviation="23.35"/>
<feComposite in2="hardAlpha" operator="arithmetic" k2="-1" k3="1"/>
<feColorMatrix type="matrix" values="0 0 0 0 0.364026 0 0 0 0 0.3875 0 0 0 0 0.186298 0 0 0 1 0"/>
<feBlend mode="normal" in2="effect1_innerShadow_1_135" result="effect2_innerShadow_1_135"/>
</filter>
<linearGradient id="paint0_linear_1_135" x1="528.161" y1="1050.9" x2="528.161" y2="20.9031" gradientUnits="userSpaceOnUse">
<stop offset="0.418269" stop-color="#FFAE00" stop-opacity="0"/>
<stop offset="0.9998" stop-color="#FF6600"/>
</linearGradient>
<linearGradient id="paint1_linear_1_135" x1="13.1611" y1="535.903" x2="1043.16" y2="535.903" gradientUnits="userSpaceOnUse">
<stop stop-color="#FFAE00" stop-opacity="0"/>
<stop offset="0.704104" stop-color="#FF6600"/>
</linearGradient>
<linearGradient id="paint2_linear_1_135" x1="450.226" y1="221.436" x2="580.243" y2="18.7428" gradientUnits="userSpaceOnUse">
<stop offset="0.145337" stop-color="#FF8800"/>
<stop offset="0.765416" stop-color="#FF8000"/>
</linearGradient>
<linearGradient id="paint3_linear_1_135" x1="773.551" y1="325.654" x2="1016.58" y2="346.321" gradientUnits="userSpaceOnUse">
<stop offset="0.145337" stop-color="#FF8800"/>
<stop offset="0.765416" stop-color="#FF8000"/>
</linearGradient>
<linearGradient id="paint4_linear_1_135" x1="847.623" y1="629.677" x2="955.328" y2="844.605" gradientUnits="userSpaceOnUse">
<stop offset="0.145337" stop-color="#FF8800"/>
<stop offset="0.765416" stop-color="#FF8000"/>
</linearGradient>
<linearGradient id="paint5_linear_1_135" x1="623.539" y1="851.74" x2="500.718" y2="1058.71" gradientUnits="userSpaceOnUse">
<stop offset="0.145337" stop-color="#FF8800"/>
<stop offset="0.765416" stop-color="#FF8000"/>
</linearGradient>
<linearGradient id="paint6_linear_1_135" x1="262.392" y1="736.439" x2="20.4575" y2="705.779" gradientUnits="userSpaceOnUse">
<stop offset="0.145337" stop-color="#FF8800"/>
<stop offset="0.765416" stop-color="#FF8000"/>
</linearGradient>
<linearGradient id="paint7_linear_1_135" x1="203.597" y1="426.136" x2="106.417" y2="206.429" gradientUnits="userSpaceOnUse">
<stop offset="0.145337" stop-color="#FF8800"/>
<stop offset="0.765416" stop-color="#FF8000"/>
</linearGradient>
<linearGradient id="paint8_linear_1_135" x1="825.993" y1="240.841" x2="231.52" y2="830.104" gradientUnits="userSpaceOnUse">
<stop stop-color="#DF8014"/>
<stop offset="0.5" stop-color="#E88F1A"/>
<stop offset="1" stop-color="#C69A16"/>
</linearGradient>
<linearGradient id="paint9_linear_1_135" x1="528.161" y1="818.063" x2="528.161" y2="253.744" gradientUnits="userSpaceOnUse">
<stop stop-color="#DF9114"/>
<stop offset="0.5" stop-color="#E8881A"/>
<stop offset="1" stop-color="#C68E16"/>
</linearGradient>
<linearGradient id="paint10_linear_1_135" x1="527.895" y1="268.39" x2="527.895" y2="447.594" gradientUnits="userSpaceOnUse">
<stop stop-color="white"/>
<stop offset="1" stop-color="white" stop-opacity="0"/>
</linearGradient>
<linearGradient id="paint11_linear_1_135" x1="519.448" y1="652.114" x2="256.177" y2="714.553" gradientUnits="userSpaceOnUse">
<stop stop-color="white" stop-opacity="0.23"/>
<stop offset="1" stop-color="white" stop-opacity="0"/>
</linearGradient>
<linearGradient id="paint12_linear_1_135" x1="527.895" y1="307.16" x2="527.895" y2="763.785" gradientUnits="userSpaceOnUse">
<stop offset="0.418269" stop-color="#C6C6C6" stop-opacity="0"/>
<stop offset="0.9998" stop-color="white"/>
</linearGradient>
<linearGradient id="paint13_linear_1_135" x1="527.895" y1="763.785" x2="527.895" y2="307.16" gradientUnits="userSpaceOnUse">
<stop offset="0.418269" stop-color="#C6C6C6" stop-opacity="0"/>
<stop offset="0.9998" stop-color="white"/>
</linearGradient>
<linearGradient id="paint14_linear_1_135" x1="527.895" y1="700.029" x2="527.895" y2="372.638" gradientUnits="userSpaceOnUse">
<stop offset="0.418269" stop-color="#C6C6C6"/>
<stop offset="0.9998" stop-color="white"/>
</linearGradient>
<linearGradient id="paint15_linear_1_135" x1="527.895" y1="700.029" x2="527.895" y2="372.638" gradientUnits="userSpaceOnUse">
<stop offset="0.418269" stop-color="#C6C6C6"/>
<stop offset="0.9998" stop-color="white"/>
</linearGradient>
<linearGradient id="paint16_linear_1_135" x1="495.905" y1="406.864" x2="549.519" y2="323.279" gradientUnits="userSpaceOnUse">
<stop offset="0.145337" stop-color="#FFAE00"/>
<stop offset="0.765416" stop-color="#9E711F"/>
</linearGradient>
<linearGradient id="paint17_linear_1_135" x1="629.234" y1="449.84" x2="729.451" y2="458.363" gradientUnits="userSpaceOnUse">
<stop offset="0.145337" stop-color="#FFAE00"/>
<stop offset="0.765416" stop-color="#9E711F"/>
</linearGradient>
<linearGradient id="paint18_linear_1_135" x1="659.779" y1="575.209" x2="704.193" y2="663.839" gradientUnits="userSpaceOnUse">
<stop offset="0.145337" stop-color="#FFAE00"/>
<stop offset="0.765416" stop-color="#9E711F"/>
</linearGradient>
<linearGradient id="paint19_linear_1_135" x1="567.373" y1="666.781" x2="516.726" y2="752.13" gradientUnits="userSpaceOnUse">
<stop offset="0.145337" stop-color="#FFAE00"/>
<stop offset="0.765416" stop-color="#9E711F"/>
</linearGradient>
<linearGradient id="paint20_linear_1_135" x1="418.448" y1="619.235" x2="318.682" y2="606.592" gradientUnits="userSpaceOnUse">
<stop offset="0.145337" stop-color="#FFAE00"/>
<stop offset="0.765416" stop-color="#9E711F"/>
</linearGradient>
<linearGradient id="paint21_linear_1_135" x1="394.203" y1="491.275" x2="354.129" y2="400.675" gradientUnits="userSpaceOnUse">
<stop offset="0.145337" stop-color="#FFAE00"/>
<stop offset="0.765416" stop-color="#9E711F"/>
</linearGradient>
<linearGradient id="paint22_linear_1_135" x1="528.07" y1="679.702" x2="528.07" y2="393.316" gradientUnits="userSpaceOnUse">
<stop stop-color="white"/>
<stop offset="0.9999" stop-color="#C6C6C6"/>
</linearGradient>
</defs>
</svg>