<svg xmlns="http://www.w3.org/2000/svg" width="1053" height="1073" viewBox="0 0 1053 1073" fill="none">
<path d="M975.761 790.617C1020.1 712.705 1043.33 624.57 1043.16 534.926C1042.99 445.282 1019.42 357.236 974.791 279.493C930.159 201.75 866.007 137.003 788.679 91.6559C711.351 46.3087 623.525 21.9315 533.887 20.9349L532.653 131.868C602.982 132.65 671.888 151.776 732.559 187.355C793.229 222.933 843.562 273.732 878.579 334.728C913.597 395.724 932.087 464.804 932.22 535.137C932.354 605.469 914.126 674.619 879.34 735.747L975.761 790.617Z" fill="url(#paint0_linear_1_274)" data-anim="true"/>
<path d="M54.429 333.906C19.2682 416.366 6.24064 506.577 16.6346 595.616C27.0286 684.655 60.484 769.439 113.693 841.584C166.901 913.729 238.02 970.735 320.016 1006.97C402.012 1043.2 492.045 1057.4 581.212 1048.16L570.965 949.215C499.021 956.665 426.379 945.208 360.221 915.975C294.064 886.743 236.682 840.748 193.752 782.539C150.821 724.329 123.828 655.922 115.441 584.082C107.055 512.241 117.566 439.456 145.935 372.924L54.429 333.906Z" fill="url(#paint1_linear_1_274)" data-anim="true"/>
<g filter="url(#filter0_f_1_274)" data-anim="true">
<path d="M460.276 194.896C455.86 180.923 563.944 141.735 701.238 172.731C765.038 166.467 980.48 365.952 933.858 394.381C899.995 401.609 946.618 353.906 694.858 225.734C573.642 188.15 456.841 225.252 460.276 194.896Z" fill="url(#paint2_linear_1_274)" data-anim="true"/>
<path d="M802.11 321.719C812.531 311.261 899.026 385.997 936.519 519.327C972.461 571.459 896.13 852.391 848.492 825.633C825.919 799.818 890.826 817.414 885.993 539.012C862.046 416.438 773.276 333.183 802.11 321.719Z" fill="url(#paint3_linear_1_274)" data-anim="true"/>
<path d="M866.083 651.431C880.628 654.613 861.539 766.176 765.907 867.741C739.732 925.211 456.35 1009.61 454.398 955.762C464.841 923.319 483.827 986.75 722.234 835.962C815.699 751.368 840.962 633.416 866.083 651.431Z" fill="url(#paint4_linear_1_274)" data-anim="true"/>
<path d="M614.442 878.61C619.355 892.423 512.735 935.306 374.419 909.053C310.883 917.509 88.4516 725.561 134.031 695.545C167.614 687.156 122.723 736.434 378.903 855.863C501.387 889.253 616.792 848.154 614.442 878.61Z" fill="url(#paint5_linear_1_274)" data-anim="true"/>
<path d="M233.694 739.236C222.85 749.271 139.507 671.159 107.541 536.448C73.7783 482.93 161.629 205.262 208.124 233.892C229.615 260.582 165.486 240.421 158.838 518.787C177.712 642.212 262.977 728.928 233.694 739.236Z" fill="url(#paint6_linear_1_274)" data-anim="true"/>
<path d="M186.237 403.526C171.867 399.653 196.459 289.134 297.01 192.255C326 136.104 613.228 65.3345 612.51 119.215C600.472 151.12 584.651 86.8581 339.056 226.083C241.512 306.113 210.436 422.719 186.237 403.526Z" fill="url(#paint7_linear_1_274)" data-anim="true"/>
</g>
<g filter="url(#filter1_f_1_274)">
<ellipse cx="528.161" cy="535.903" rx="345" ry="350" fill="url(#paint8_linear_1_274)"/>
</g>
<circle cx="527.47" cy="536.403" r="327.5" transform="rotate(-180 527.47 536.403)" fill="url(#paint9_linear_1_274)"/>
<ellipse cx="527.161" cy="329.903" rx="169" ry="104" fill="url(#paint10_linear_1_274)"/>
<ellipse cx="348.357" cy="639.169" rx="169" ry="104" transform="rotate(-119.759 348.357 639.169)" fill="url(#paint11_linear_1_274)"/>
<path d="M262.161 535.903C262.161 570.703 269.016 605.163 282.333 637.314C295.651 669.465 315.17 698.679 339.778 723.286C364.385 747.894 393.599 767.414 425.75 780.731C457.901 794.049 492.361 800.903 527.161 800.903V734.454C501.087 734.454 475.268 729.318 451.179 719.34C427.09 709.362 405.202 694.737 386.764 676.3C368.327 657.863 353.702 635.975 343.724 611.885C333.746 587.796 328.61 561.977 328.61 535.903H262.161Z" fill="url(#paint12_linear_1_274)" data-anim="true"/>
<path d="M792.161 535.903C792.161 501.103 785.307 466.643 771.989 434.492C758.672 402.341 739.152 373.127 714.544 348.52C689.937 323.912 660.723 304.393 628.572 291.075C596.421 277.758 561.961 270.903 527.161 270.903V337.352C553.235 337.352 579.054 342.488 603.143 352.466C627.233 362.444 649.121 377.069 667.558 395.506C685.995 413.944 700.62 435.832 710.598 459.921C720.576 484.01 725.712 509.829 725.712 535.903H792.161Z" fill="url(#paint13_linear_1_274)" data-anim="true"/>
<path d="M520.843 347.008C495.906 347.838 471.376 353.571 448.655 363.881C425.933 374.19 405.464 388.874 388.418 407.095C371.371 425.315 358.08 446.714 349.303 470.07C340.527 493.427 336.437 518.284 337.266 543.221L361.45 542.416C360.726 520.655 364.295 498.964 371.954 478.582C379.613 458.2 391.212 439.526 406.087 423.626C420.963 407.727 438.825 394.913 458.653 385.916C478.481 376.919 499.886 371.916 521.648 371.192L520.843 347.008Z" fill="url(#paint14_linear_1_274)" data-anim="true"/>
<path d="M538.334 726.574C563.242 725.107 587.617 718.748 610.068 707.861C632.518 696.973 652.605 681.77 669.18 663.12C685.755 644.47 698.494 622.738 706.67 599.164C714.847 575.591 718.3 550.638 716.832 525.73L692.677 527.153C693.957 548.889 690.944 570.664 683.809 591.235C676.674 611.806 665.557 630.771 651.093 647.046C636.629 663.321 619.101 676.587 599.509 686.088C579.918 695.589 558.647 701.138 536.911 702.419L538.334 726.574Z" fill="url(#paint15_linear_1_274)" data-anim="true" data-hidden="false"/>
<g filter="url(#filter2_f_1_274)">
<path d="M717.057 468.977C716.014 468.61 715.156 467.851 714.141 466.569C713.115 465.275 711.999 463.546 710.377 461.271C708.768 459.013 706.694 456.269 703.802 453.016C692.235 440.008 667.629 418.93 607.351 388.242L607.313 388.223L607.272 388.21C578.18 379.19 549.63 379.136 528.602 379.511C518.065 379.698 509.466 379.992 503.592 379.337C500.649 379.009 498.469 378.449 497.085 377.572C496.402 377.14 495.928 376.64 495.643 376.065C495.359 375.491 495.245 374.807 495.339 373.976L495.351 373.872L495.319 373.773C495.24 373.523 495.269 373.201 495.504 372.779C495.741 372.352 496.17 371.861 496.815 371.32C498.104 370.24 500.159 369.039 502.929 367.814C508.461 365.368 516.741 362.87 527.154 361.04C547.977 357.38 577.271 356.4 610.057 363.802L610.136 363.82L610.218 363.812C613.91 363.449 618.768 364.576 624.443 366.917C630.105 369.252 636.523 372.772 643.315 377.133C656.897 385.856 671.928 397.915 685.315 410.497C698.705 423.082 710.424 436.168 717.4 446.939C720.892 452.33 723.168 457.1 723.894 460.913C724.256 462.816 724.226 464.449 723.796 465.791C723.378 467.095 722.575 468.152 721.325 468.935C719.381 469.342 718.089 469.339 717.057 468.977Z" fill="url(#paint16_linear_1_274)" stroke="black"/>
<path d="M678.911 671.765C678.745 670.697 679.015 669.599 679.681 668.113C680.354 666.611 681.372 664.827 682.64 662.344C683.898 659.88 685.372 656.784 686.911 652.739C693.07 636.562 700.259 605.284 699.102 538.625L699.102 538.581L699.093 538.538C693.346 509.117 679.82 484.426 669.488 466.44C664.31 457.426 659.96 450.139 657.755 444.755C656.651 442.058 656.117 439.914 656.244 438.307C656.307 437.515 656.529 436.87 656.909 436.351C657.288 435.832 657.848 435.407 658.64 435.092L658.736 435.053L658.809 434.98C658.998 434.79 659.306 434.661 659.801 434.663C660.3 434.665 660.946 434.803 661.738 435.103C663.319 435.703 665.373 436.908 667.787 438.718C672.608 442.333 678.782 448.298 685.372 456.422C698.549 472.668 713.351 497.505 722.304 529.341L722.326 529.422L722.374 529.49C724.451 532.504 725.752 537.231 726.352 543.244C726.951 549.243 726.847 556.459 726.168 564.398C724.809 580.275 721.149 598.991 716.239 616.535C711.327 634.084 705.174 650.428 698.839 661.573C695.669 667.152 692.476 671.386 689.403 673.826C686.369 676.235 683.553 676.831 680.972 675.423C679.684 673.937 679.076 672.822 678.911 671.765Z" fill="url(#paint17_linear_1_274)" stroke="black"/>
<path d="M494.618 734.515C495.459 733.81 496.554 733.459 498.191 733.23C499.846 733 501.927 732.908 504.745 732.657C507.54 732.408 510.997 732.005 515.308 731.158C532.555 727.768 563.414 717.281 620.496 681.177L620.533 681.154L620.565 681.125C642.997 660.822 657.236 636.523 667.357 618.421C672.428 609.351 676.442 601.88 679.94 597.201C681.692 594.857 683.268 593.279 684.729 592.537C685.45 592.17 686.127 592.015 686.777 592.058C687.425 592.101 688.088 592.344 688.776 592.837L688.86 592.899L688.963 592.921C689.225 592.978 689.497 593.164 689.755 593.576C690.014 593.991 690.235 594.602 690.393 595.42C690.707 597.055 690.747 599.403 690.452 602.372C689.865 608.3 687.957 616.597 684.399 626.378C677.284 645.937 663.59 671.381 640.754 695.634L640.698 695.694L640.665 695.768C639.151 699.092 635.742 702.671 630.853 706.342C625.976 710.004 619.674 713.723 612.444 717.341C597.986 724.577 579.857 731.39 562.084 736.541C544.307 741.694 526.917 745.175 513.932 745.765C507.432 746.06 502.085 745.628 498.353 744.351C496.491 743.713 495.062 742.876 494.088 741.841C493.141 740.836 492.607 739.624 492.535 738.17C493.142 736.311 493.787 735.213 494.618 734.515Z" fill="url(#paint18_linear_1_274)" stroke="black"/>
<path d="M343.156 613.827C344.211 614.157 345.095 614.887 346.156 616.133C347.227 617.392 348.404 619.081 350.107 621.299C351.796 623.5 353.966 626.171 356.972 629.322C368.996 641.924 394.339 662.142 455.676 690.737L455.715 690.755L455.756 690.766C485.152 698.78 513.687 697.852 534.689 696.753C545.212 696.203 553.795 695.614 559.689 696.066C562.642 696.293 564.841 696.778 566.255 697.606C566.953 698.015 567.444 698.498 567.75 699.063C568.054 699.627 568.193 700.306 568.129 701.139L568.12 701.244L568.156 701.343C568.244 701.59 568.227 701.912 568.007 702.341C567.785 702.776 567.374 703.282 566.748 703.844C565.5 704.968 563.488 706.239 560.764 707.558C555.323 710.193 547.137 712.974 536.795 715.162C516.116 719.536 486.875 721.524 453.845 715.255L453.764 715.239L453.684 715.25C450.007 715.739 445.111 714.781 439.356 712.637C433.615 710.498 427.075 707.201 420.132 703.076C406.247 694.826 390.793 683.292 376.965 671.178C363.134 659.061 350.955 646.386 343.599 635.862C339.917 630.594 337.472 625.905 336.61 622.12C336.181 620.231 336.153 618.598 336.534 617.242C336.905 615.924 337.671 614.841 338.892 614.015C340.82 613.542 342.111 613.501 343.156 613.827Z" fill="url(#paint19_linear_1_274)" stroke="black"/>
<path d="M375.725 396.706C375.847 397.781 375.531 398.866 374.804 400.325C374.071 401.798 372.981 403.542 371.611 405.973C370.253 408.384 368.652 411.419 366.947 415.399C360.127 431.319 351.654 462.285 350.062 528.936L350.061 528.98L350.068 529.024C354.598 558.649 367.094 583.858 376.676 602.24C381.478 611.451 385.524 618.904 387.506 624.372C388.498 627.11 388.942 629.274 388.749 630.875C388.654 631.664 388.406 632.299 388.005 632.803C387.605 633.306 387.027 633.709 386.223 633.992L386.126 634.027L386.05 634.097C385.852 634.279 385.539 634.396 385.046 634.374C384.547 634.352 383.906 634.189 383.128 633.858C381.572 633.196 379.571 631.91 377.234 630.005C372.565 626.201 366.641 619.996 360.392 611.616C347.895 594.86 334.129 569.456 326.496 537.29L326.477 537.209L326.433 537.138C324.482 534.044 323.377 529.269 323.025 523.237C322.674 517.22 323.075 510.013 324.081 502.107C326.094 486.297 330.522 467.742 336.152 450.408C341.783 433.069 348.605 416.984 355.394 406.099C358.792 400.651 362.156 396.548 365.328 394.231C368.457 391.945 371.295 391.461 373.816 392.97C375.042 394.506 375.604 395.643 375.725 396.706Z" fill="url(#paint20_linear_1_274)" stroke="black"/>
<path d="M564.938 341.159C564.064 341.823 562.952 342.123 561.305 342.273C559.642 342.424 557.557 342.416 554.731 342.532C551.927 342.647 548.455 342.884 544.106 343.524C526.713 346.086 495.37 355.088 436.567 388.422L436.529 388.444L436.497 388.472C413.085 407.68 397.658 431.269 386.653 448.866C381.139 457.683 376.76 464.955 373.034 469.461C371.168 471.718 369.515 473.219 368.019 473.891C367.281 474.223 366.596 474.345 365.949 474.271C365.304 474.198 364.655 473.923 363.992 473.398L363.909 473.332L363.807 473.305C363.549 473.235 363.287 473.037 363.051 472.614C362.812 472.186 362.622 471.566 362.505 470.741C362.272 469.093 362.349 466.746 362.79 463.795C363.671 457.901 365.987 449.706 370.026 440.106C378.101 420.91 393.038 396.15 417.05 373.016L417.108 372.959L417.146 372.887C418.823 369.639 422.405 366.227 427.47 362.793C432.522 359.368 439 355.955 446.401 352.686C461.201 346.149 479.646 340.211 497.653 335.914C515.665 331.617 533.207 328.971 546.206 329.001C552.713 329.017 558.032 329.703 561.696 331.157C563.524 331.882 564.91 332.787 565.831 333.867C566.727 334.917 567.202 336.153 567.2 337.609C566.503 339.436 565.803 340.502 564.938 341.159Z" fill="url(#paint21_linear_1_274)" stroke="black"/>
</g>
<g filter="url(#filter3_ii_1_274)">
<circle cx="527.364" cy="537.106" r="166.203" transform="rotate(-180 527.364 537.106)" fill="url(#paint22_linear_1_274)"/>
</g>
<path d="M511.471 517.471C532.739 518.318 548.302 522.979 558.161 531.454C568.161 539.929 573.161 551.44 573.161 565.988C573.161 572.485 572.034 578.488 569.781 583.996C567.668 589.505 564.358 594.236 559.851 598.191C555.485 602.146 549.922 605.253 543.161 607.513C536.401 609.773 528.372 610.903 519.077 610.903C515.415 610.903 511.682 610.621 507.879 610.056C504.077 609.491 500.555 608.784 497.316 607.937C494.077 607.09 491.189 606.242 488.654 605.395C486.119 604.547 484.288 603.841 483.161 603.276L486.964 586.115C489.358 587.245 493.232 588.728 498.584 590.564C504.077 592.4 510.767 593.318 518.654 593.318C524.992 593.318 530.274 592.612 534.499 591.2C538.865 589.787 542.386 587.881 545.063 585.479C547.739 583.078 549.64 580.324 550.767 577.217C552.034 573.968 552.668 570.578 552.668 567.047C552.668 561.68 551.753 556.948 549.922 552.852C548.091 548.615 544.851 545.084 540.203 542.259C535.555 539.434 529.358 537.316 521.612 535.903C513.865 534.349 504.077 533.573 492.246 533.573C493.091 526.652 493.724 520.155 494.147 514.081C494.71 508.008 495.203 502.075 495.626 496.284C496.048 490.493 496.401 484.773 496.682 479.123C496.964 473.332 497.246 467.259 497.527 460.903H568.091V477.64H514.64C514.499 479.759 514.288 482.655 514.006 486.327C513.724 489.858 513.443 493.601 513.161 497.556C512.879 501.369 512.598 505.112 512.316 508.784C512.034 512.457 511.753 515.352 511.471 517.471Z" fill="black"/>
<defs>
<filter id="filter0_f_1_274" x="0" y="0" width="1045.84" height="1073" filterUnits="userSpaceOnUse" color-interpolation-filters="sRGB">
<feFlood flood-opacity="0" result="BackgroundImageFix"/>
<feBlend mode="normal" in="SourceGraphic" in2="BackgroundImageFix" result="shape"/>
<feGaussianBlur stdDeviation="5.95" result="effect1_foregroundBlur_1_274"/>
</filter>
<filter id="filter1_f_1_274" x="3.86111" y="6.6031" width="1048.6" height="1058.6" filterUnits="userSpaceOnUse" color-interpolation-filters="sRGB">
<feFlood flood-opacity="0" result="BackgroundImageFix"/>
<feBlend mode="normal" in="SourceGraphic" in2="BackgroundImageFix" result="shape"/>
<feGaussianBlur stdDeviation="89.65" result="effect1_foregroundBlur_1_274"/>
</filter>
<filter id="filter2_f_1_274" x="272.4" y="278.505" width="504.845" height="517.844" filterUnits="userSpaceOnUse" color-interpolation-filters="sRGB">
<feFlood flood-opacity="0" result="BackgroundImageFix"/>
<feBlend mode="normal" in="SourceGraphic" in2="BackgroundImageFix" result="shape"/>
<feGaussianBlur stdDeviation="25" result="effect1_foregroundBlur_1_274"/>
</filter>
<filter id="filter3_ii_1_274" x="361.161" y="347.903" width="332.406" height="359.406" filterUnits="userSpaceOnUse" color-interpolation-filters="sRGB">
<feFlood flood-opacity="0" result="BackgroundImageFix"/>
<feBlend mode="normal" in="SourceGraphic" in2="BackgroundImageFix" result="shape"/>
<feColorMatrix in="SourceAlpha" type="matrix" values="0 0 0 0 0 0 0 0 0 0 0 0 0 0 0 0 0 0 127 0" result="hardAlpha"/>
<feOffset dy="4"/>
<feGaussianBlur stdDeviation="29.1"/>
<feComposite in2="hardAlpha" operator="arithmetic" k2="-1" k3="1"/>
<feColorMatrix type="matrix" values="0 0 0 0 1 0 0 0 0 0 0 0 0 0 0.683333 0 0 0 1 0"/>
<feBlend mode="normal" in2="shape" result="effect1_innerShadow_1_274"/>
<feColorMatrix in="SourceAlpha" type="matrix" values="0 0 0 0 0 0 0 0 0 0 0 0 0 0 0 0 0 0 127 0" result="hardAlpha"/>
<feOffset dy="-23"/>
<feGaussianBlur stdDeviation="23.35"/>
<feComposite in2="hardAlpha" operator="arithmetic" k2="-1" k3="1"/>
<feColorMatrix type="matrix" values="0 0 0 0 0.3875 0 0 0 0 0.186298 0 0 0 0 0.353966 0 0 0 1 0"/>
<feBlend mode="normal" in2="effect1_innerShadow_1_274" result="effect2_innerShadow_1_274"/>
</filter>
<linearGradient id="paint0_linear_1_274" x1="1043.16" y1="535.903" x2="13.1611" y2="535.903" gradientUnits="userSpaceOnUse">
<stop stop-color="#FF0059" stop-opacity="0"/>
<stop offset="0.2098" stop-color="#FF00B7"/>
</linearGradient>
<linearGradient id="paint1_linear_1_274" x1="49.1611" y1="326.903" x2="1043.16" y2="535.903" gradientUnits="userSpaceOnUse">
<stop stop-color="#FF0059" stop-opacity="0"/>
<stop offset="0.41998" stop-color="#FF00C8"/>
</linearGradient>
<linearGradient id="paint2_linear_1_274" x1="450.226" y1="221.436" x2="580.243" y2="18.7428" gradientUnits="userSpaceOnUse">
<stop offset="0.145337" stop-color="#FF00C8"/>
<stop offset="0.765416" stop-color="#FB00FF"/>
</linearGradient>
<linearGradient id="paint3_linear_1_274" x1="773.551" y1="325.654" x2="1016.58" y2="346.321" gradientUnits="userSpaceOnUse">
<stop offset="0.145337" stop-color="#FF00C8"/>
<stop offset="0.765416" stop-color="#FB00FF"/>
</linearGradient>
<linearGradient id="paint4_linear_1_274" x1="847.623" y1="629.677" x2="955.328" y2="844.605" gradientUnits="userSpaceOnUse">
<stop offset="0.145337" stop-color="#FF00C8"/>
<stop offset="0.765416" stop-color="#FB00FF"/>
</linearGradient>
<linearGradient id="paint5_linear_1_274" x1="623.539" y1="851.74" x2="500.718" y2="1058.71" gradientUnits="userSpaceOnUse">
<stop offset="0.145337" stop-color="#FF00C8"/>
<stop offset="0.765416" stop-color="#FB00FF"/>
</linearGradient>
<linearGradient id="paint6_linear_1_274" x1="262.392" y1="736.439" x2="20.4575" y2="705.779" gradientUnits="userSpaceOnUse">
<stop offset="0.145337" stop-color="#FF00C8"/>
<stop offset="0.765416" stop-color="#FB00FF"/>
</linearGradient>
<linearGradient id="paint7_linear_1_274" x1="203.597" y1="426.136" x2="106.417" y2="206.429" gradientUnits="userSpaceOnUse">
<stop offset="0.145337" stop-color="#FF00C8"/>
<stop offset="0.765416" stop-color="#FB00FF"/>
</linearGradient>
<linearGradient id="paint8_linear_1_274" x1="873.161" y1="193.927" x2="183.161" y2="877.879" gradientUnits="userSpaceOnUse">
<stop stop-color="#DF14BD"/>
<stop offset="0.5" stop-color="#E81AE5"/>
<stop offset="1" stop-color="#C616B5"/>
</linearGradient>
<linearGradient id="paint9_linear_1_274" x1="527.47" y1="863.903" x2="527.47" y2="208.903" gradientUnits="userSpaceOnUse">
<stop stop-color="#DF14B7"/>
<stop offset="0.5" stop-color="#E81AD3"/>
<stop offset="1" stop-color="#C616A0"/>
</linearGradient>
<linearGradient id="paint10_linear_1_274" x1="527.161" y1="225.903" x2="527.161" y2="433.903" gradientUnits="userSpaceOnUse">
<stop stop-color="white"/>
<stop offset="1" stop-color="white" stop-opacity="0"/>
</linearGradient>
<linearGradient id="paint11_linear_1_274" x1="517.357" y1="671.288" x2="211.78" y2="743.761" gradientUnits="userSpaceOnUse">
<stop stop-color="white" stop-opacity="0.23"/>
<stop offset="1" stop-color="white" stop-opacity="0"/>
</linearGradient>
<linearGradient id="paint12_linear_1_274" x1="527.161" y1="270.903" x2="527.161" y2="800.903" gradientUnits="userSpaceOnUse">
<stop offset="0.418269" stop-color="#C6C6C6" stop-opacity="0"/>
<stop offset="0.9998" stop-color="white"/>
</linearGradient>
<linearGradient id="paint13_linear_1_274" x1="527.161" y1="800.903" x2="527.161" y2="270.903" gradientUnits="userSpaceOnUse">
<stop offset="0.418269" stop-color="#C6C6C6" stop-opacity="0"/>
<stop offset="0.9998" stop-color="white"/>
</linearGradient>
<linearGradient id="paint14_linear_1_274" x1="527.161" y1="726.903" x2="527.161" y2="346.903" gradientUnits="userSpaceOnUse">
<stop offset="0.418269" stop-color="#C6C6C6"/>
<stop offset="0.9998" stop-color="white"/>
</linearGradient>
<linearGradient id="paint15_linear_1_274" x1="527.161" y1="726.903" x2="527.161" y2="346.903" gradientUnits="userSpaceOnUse">
<stop offset="0.418269" stop-color="#C6C6C6"/>
<stop offset="0.9998" stop-color="white"/>
</linearGradient>
<linearGradient id="paint16_linear_1_274" x1="490.03" y1="386.628" x2="552.26" y2="289.613" gradientUnits="userSpaceOnUse">
<stop offset="0.145337" stop-color="#FF00AE"/>
<stop offset="0.765416" stop-color="#9E1F71"/>
</linearGradient>
<linearGradient id="paint17_linear_1_274" x1="644.784" y1="436.51" x2="761.106" y2="446.402" gradientUnits="userSpaceOnUse">
<stop offset="0.145337" stop-color="#FF00AE"/>
<stop offset="0.765416" stop-color="#9E1F71"/>
</linearGradient>
<linearGradient id="paint18_linear_1_274" x1="680.237" y1="582.026" x2="731.788" y2="684.897" gradientUnits="userSpaceOnUse">
<stop offset="0.145337" stop-color="#FF00AE"/>
<stop offset="0.765416" stop-color="#9E1F71"/>
</linearGradient>
<linearGradient id="paint19_linear_1_274" x1="572.983" y1="688.312" x2="514.197" y2="787.376" gradientUnits="userSpaceOnUse">
<stop offset="0.145337" stop-color="#FF00AE"/>
<stop offset="0.765416" stop-color="#9E1F71"/>
</linearGradient>
<linearGradient id="paint20_linear_1_274" x1="400.126" y1="633.125" x2="284.329" y2="618.451" gradientUnits="userSpaceOnUse">
<stop offset="0.145337" stop-color="#FF00AE"/>
<stop offset="0.765416" stop-color="#9E1F71"/>
</linearGradient>
<linearGradient id="paint21_linear_1_274" x1="371.985" y1="484.604" x2="325.472" y2="379.445" gradientUnits="userSpaceOnUse">
<stop offset="0.145337" stop-color="#FF00AE"/>
<stop offset="0.765416" stop-color="#9E1F71"/>
</linearGradient>
<linearGradient id="paint22_linear_1_274" x1="527.364" y1="703.309" x2="527.364" y2="370.903" gradientUnits="userSpaceOnUse">
<stop stop-color="white"/>
<stop offset="0.9999" stop-color="#C6C6C6"/>
</linearGradient>
</defs>
</svg>