<svg xmlns="http://www.w3.org/2000/svg" width="1049" height="1059" viewBox="0 0 1049 1059" fill="none">
<g filter="url(#filter0_f_1_26)">
<ellipse cx="524.3" cy="529.3" rx="345" ry="350" fill="url(#paint0_linear_1_26)"/>
</g>
<circle cx="523.609" cy="529.8" r="327.5" transform="rotate(-180 523.609 529.8)" fill="url(#paint1_linear_1_26)"/>
<ellipse cx="523.3" cy="323.3" rx="169" ry="104" fill="url(#paint2_linear_1_26)"/>
<ellipse cx="344.496" cy="632.566" rx="169" ry="104" transform="rotate(-119.759 344.496 632.566)" fill="url(#paint3_linear_1_26)"/>
<circle cx="523.243" cy="528.434" r="163.5" fill="white"/>
<g filter="url(#filter1_d_1_26)">
<path d="M453.743 630.359V426.934H530.814C565.676 426.934 588.629 437.11 599.672 457.461C606.152 469.508 609.391 492.598 609.391 526.73V530.563C609.391 564.695 606.152 587.785 599.672 599.831C588.629 620.183 565.676 630.359 530.814 630.359H453.743ZM478.931 605.17H530.814C555.729 605.17 571.289 599.375 577.495 587.785C581.967 579.48 584.203 560.406 584.203 530.563V526.73C584.203 496.796 581.967 477.722 577.495 469.508C571.289 457.918 555.729 452.122 530.814 452.122H478.931V605.17Z" fill="black"/>
</g>
<defs>
<filter id="filter0_f_1_26" x="0" y="0" width="1048.6" height="1058.6" filterUnits="userSpaceOnUse" color-interpolation-filters="sRGB">
<feFlood flood-opacity="0" result="BackgroundImageFix"/>
<feBlend mode="normal" in="SourceGraphic" in2="BackgroundImageFix" result="shape"/>
<feGaussianBlur stdDeviation="89.65" result="effect1_foregroundBlur_1_26"/>
</filter>
<filter id="filter1_d_1_26" x="415.743" y="392.934" width="231.649" height="279.425" filterUnits="userSpaceOnUse" color-interpolation-filters="sRGB">
<feFlood flood-opacity="0" result="BackgroundImageFix"/>
<feColorMatrix in="SourceAlpha" type="matrix" values="0 0 0 0 0 0 0 0 0 0 0 0 0 0 0 0 0 0 127 0" result="hardAlpha"/>
<feOffset dy="4"/>
<feGaussianBlur stdDeviation="19"/>
<feComposite in2="hardAlpha" operator="out"/>
<feColorMatrix type="matrix" values="0 0 0 0 0 0 0 0 0 0.888889 0 0 0 0 1 0 0 0 0.86 0"/>
<feBlend mode="normal" in2="BackgroundImageFix" result="effect1_dropShadow_1_26"/>
<feBlend mode="normal" in="SourceGraphic" in2="effect1_dropShadow_1_26" result="shape"/>
</filter>
<linearGradient id="paint0_linear_1_26" x1="869.3" y1="187.324" x2="179.3" y2="871.276" gradientUnits="userSpaceOnUse">
<stop stop-color="#1428DF"/>
<stop offset="0.5" stop-color="#241AE8"/>
<stop offset="1" stop-color="#1E16C6"/>
</linearGradient>
<linearGradient id="paint1_linear_1_26" x1="523.609" y1="857.3" x2="523.609" y2="202.3" gradientUnits="userSpaceOnUse">
<stop stop-color="#1E14DF"/>
<stop offset="0.5" stop-color="#1A1AE8"/>
<stop offset="1" stop-color="#1616C6"/>
</linearGradient>
<linearGradient id="paint2_linear_1_26" x1="523.3" y1="219.3" x2="523.3" y2="427.3" gradientUnits="userSpaceOnUse">
<stop stop-color="white"/>
<stop offset="1" stop-color="white" stop-opacity="0"/>
</linearGradient>
<linearGradient id="paint3_linear_1_26" x1="513.496" y1="664.685" x2="207.919" y2="737.158" gradientUnits="userSpaceOnUse">
<stop stop-color="white" stop-opacity="0.23"/>
<stop offset="1" stop-color="white" stop-opacity="0"/>
</linearGradient>
</defs>
</svg>